<svg xmlns="http://www.w3.org/2000/svg" version="1.1" xmlns:xlink="http://www.w3.org/1999/xlink" xmlns:svgjs="http://svgjs.dev/svgjs" width="1000" height="1000" viewBox="0 0 1000 1000"><rect width="1000" height="1000" fill="#ffffff"></rect><g transform="matrix(0.7,0,0,0.7,149.84897959183667,150.19913061224486)"><svg viewBox="0 0 343 343" data-background-color="#ffffff" preserveAspectRatio="xMidYMid meet" height="999" width="1000" xmlns="http://www.w3.org/2000/svg" xmlns:xlink="http://www.w3.org/1999/xlink"><g id="tight-bounds" transform="matrix(1,0,0,1,0.0740000000000407,0.07400000000001228)"><svg viewBox="0 0 342.85155851775386 342.85155851775386" height="342.85155851775386" width="342.85155851775386"><g><svg></svg></g><g><svg viewBox="0 0 342.85155851775386 342.85155851775386" height="342.85155851775386" width="342.85155851775386"><g><path d="M0 171.426c0-94.676 76.75-171.426 171.426-171.426 94.676 0 171.426 76.75 171.426 171.426 0 94.676-76.75 171.426-171.426 171.426-94.676 0-171.426-76.75-171.426-171.426zM171.426 340.217c93.221 0 168.792-75.571 168.791-168.791 0-93.221-75.571-168.792-168.791-168.792-93.221 0-168.792 75.571-168.792 168.792 0 93.221 75.571 168.792 168.792 168.791z" data-fill-palette-color="tertiary" fill="#7c4e29" stroke="transparent"></path><ellipse rx="164.56874808852186" ry="164.56874808852186" cx="171.42577925887693" cy="171.42577925887693" fill="#7c4e29" stroke="transparent" stroke-width="0" fill-opacity="1" data-fill-palette-color="tertiary"></ellipse></g><g transform="matrix(1,0,0,1,64.84655864529837,133.1883840349413)"><svg viewBox="0 0 213.1584412271571 76.47479044787124" height="76.47479044787124" width="213.1584412271571"><g><svg viewBox="0 0 213.1584412271571 76.47479044787124" height="76.47479044787124" width="213.1584412271571"><g><svg viewBox="0 0 213.1584412271571 76.47479044787124" height="76.47479044787124" width="213.1584412271571"><g transform="matrix(1,0,0,1,0,47.26448851321723)"><svg viewBox="0 0 213.1584412271571 29.210301934654016" height="29.210301934654016" width="213.1584412271571"><g><svg viewBox="0 0 213.1584412271571 29.210301934654016" height="29.210301934654016" width="213.1584412271571"><g><svg viewBox="0 0 213.1584412271571 29.210301934654016" height="29.210301934654016" width="213.1584412271571"><g transform="matrix(1,0,0,1,0,0)"><svg width="213.1584412271571" viewBox="1.850000023841858 -35.5 263.7699890136719 36.150001525878906" height="29.210301934654016" data-palette-color="#ffffff"><path d="M5.6-9.15Q5.75-7.55 6.78-6.13 7.8-4.7 9.55-3.83 11.3-2.95 13.6-2.95L13.6-2.95Q17.15-2.95 19.43-4.58 21.7-6.2 21.7-9.3L21.7-9.3Q21.7-11.5 20.5-12.98 19.3-14.45 17.55-15.33 15.8-16.2 12.75-17.35L12.75-17.35Q9.5-18.55 7.5-19.58 5.5-20.6 4.13-22.38 2.75-24.15 2.75-26.9L2.75-26.9Q2.75-29.1 4-31.08 5.25-33.05 7.78-34.27 10.3-35.5 14-35.5L14-35.5Q16.45-35.5 18.05-35.15 19.65-34.8 21.3-34L21.3-34 20.2-30.6Q17.1-31.95 14.1-31.95L14.1-31.95Q10.55-31.95 8.53-30.53 6.5-29.1 6.55-26.65L6.55-26.65Q6.55-25.15 7.6-24.08 8.65-23 10.2-22.25 11.75-21.5 14.4-20.55L14.4-20.55Q17.95-19.25 20.2-18.07 22.45-16.9 24.03-14.83 25.6-12.75 25.6-9.65L25.6-9.65Q25.6-5.05 22.68-2.25 19.75 0.55 13.65 0.55L13.65 0.55Q9.95 0.55 7.33-0.83 4.7-2.2 3.33-4.38 1.95-6.55 1.85-8.9L1.85-8.9 5.6-9.15ZM49.85 0L46.4-11.3 36-11.3 32.7 0 28.8 0 39.1-35 43.25-35 53.9 0 49.85 0ZM41.15-29.2L36.95-15 45.5-15 41.15-29.2ZM58.3 0L58.3-31.6 50.2-31.6 50.2-35 70.3-35 70.3-31.6 61.9-31.6 61.9 0 58.3 0ZM102.09-0.3Q98.99 0.5 96.09 0.5L96.09 0.5Q93.39 0.5 91.59-0.1L91.59-0.1Q88.64-1.1 87.32-3.18 85.99-5.25 85.99-9L85.99-9 85.99-15.4Q85.99-20.35 88.59-22.93 91.19-25.5 95.29-25.5L95.29-25.5Q98.54-25.5 101.99-23.9L101.99-23.9 100.99-21.05Q98.14-22.15 95.89-22.15L95.89-22.15Q93.04-22.15 91.32-20.53 89.59-18.9 89.59-15.7L89.59-15.7 89.59-8.45Q89.59-5.5 91.52-4.17 93.44-2.85 96.44-2.85L96.44-2.85Q98.79-2.85 101.24-3.5L101.24-3.5 102.09-0.3ZM124.44 0Q119.04 0.55 116.64 0.55L116.64 0.55Q111.39 0.55 108.29-1.4 105.19-3.35 105.19-8.45L105.19-8.45 105.19-12.6Q105.19-17.55 108.64-19.25L108.64-19.25Q110.29-20.05 112.69-20.05L112.69-20.05Q114.89-20.05 117.14-19.38 119.39-18.7 120.84-17.65L120.84-17.65Q120.84-22.8 113.79-22.8L113.79-22.8 114.04-25.45Q118.84-25.45 121.11-23.93 123.39-22.4 123.91-20.3 124.44-18.2 124.44-14.9L124.44-14.9 124.44 0ZM120.84-14.4Q119.09-15.25 116.99-15.93 114.89-16.6 113.14-16.6L113.14-16.6Q108.79-16.6 108.79-12.3L108.79-12.3 108.79-8.4Q108.79-2.7 116.59-2.7L116.59-2.7Q118.14-2.7 120.84-3.05L120.84-3.05 120.84-14.4ZM130.14 0L130.14-35 133.74-35 133.74 0 130.14 0ZM155.63-0.3Q152.53 0.5 149.63 0.5L149.63 0.5Q146.93 0.5 145.13-0.1L145.13-0.1Q142.18-1.1 140.86-3.18 139.53-5.25 139.53-9L139.53-9 139.53-15.4Q139.53-20.35 142.13-22.93 144.73-25.5 148.83-25.5L148.83-25.5Q152.08-25.5 155.53-23.9L155.53-23.9 154.53-21.05Q151.68-22.15 149.43-22.15L149.43-22.15Q146.58-22.15 144.86-20.53 143.13-18.9 143.13-15.7L143.13-15.7 143.13-8.45Q143.13-5.5 145.06-4.17 146.98-2.85 149.98-2.85L149.98-2.85Q152.33-2.85 154.78-3.5L154.78-3.5 155.63-0.3ZM173.88 0L173.88-1.85Q172.83-0.7 171.28-0.08 169.73 0.55 168.08 0.55L168.08 0.55Q158.68 0.55 158.68-8.6L158.68-8.6 158.68-25.05 162.28-25.05 162.28-8.6Q162.28-5.7 163.78-4.28 165.28-2.85 168.08-2.85L168.08-2.85Q173.73-2.85 173.73-8.65L173.73-8.65 173.73-25.05 177.33-25.05 177.33 0 173.88 0ZM183.13 0L183.13-35 186.73-35 186.73 0 183.13 0ZM211.53 0Q206.13 0.55 203.73 0.55L203.73 0.55Q198.48 0.55 195.38-1.4 192.28-3.35 192.28-8.45L192.28-8.45 192.28-12.6Q192.28-17.55 195.73-19.25L195.73-19.25Q197.38-20.05 199.78-20.05L199.78-20.05Q201.98-20.05 204.23-19.38 206.48-18.7 207.93-17.65L207.93-17.65Q207.93-22.8 200.88-22.8L200.88-22.8 201.13-25.45Q205.93-25.45 208.2-23.93 210.48-22.4 211-20.3 211.53-18.2 211.53-14.9L211.53-14.9 211.53 0ZM207.93-14.4Q206.18-15.25 204.08-15.93 201.98-16.6 200.23-16.6L200.23-16.6Q195.88-16.6 195.88-12.3L195.88-12.3 195.88-8.4Q195.88-2.7 203.68-2.7L203.68-2.7Q205.23-2.7 207.93-3.05L207.93-3.05 207.93-14.4ZM220.92 0.65Q217.72 0.05 216.32-1.75 214.92-3.55 214.92-6.6L214.92-6.6 214.92-35 218.57-35 218.57-25.05 224.17-25.05 222.97-21.65 218.57-21.65 218.57-6.6Q218.57-3.05 221.97-2.15L221.97-2.15 220.92 0.65ZM247.87-9.2Q247.87-5 245.57-2.25 243.27 0.5 238.62 0.5L238.62 0.5Q233.97 0.5 231.6-2.27 229.22-5.05 229.22-9.2L229.22-9.2 229.22-15.8Q229.22-20.55 231.65-23.08 234.07-25.6 238.62-25.6L238.62-25.6Q242.97-25.6 245.42-22.98 247.87-20.35 247.87-15.8L247.87-15.8 247.87-9.2ZM244.27-15.8Q244.27-22.15 238.62-22.15L238.62-22.15Q235.97-22.15 234.4-20.65 232.82-19.15 232.82-15.8L232.82-15.8 232.82-8.7Q232.82-6 234.4-4.42 235.97-2.85 238.62-2.85L238.62-2.85Q241.27-2.85 242.77-4.42 244.27-6 244.27-8.7L244.27-8.7 244.27-15.8ZM252.67 0L252.67-25.05 256.17-25.05 256.17-23.75Q258.52-25.5 261.72-25.5L261.72-25.5Q263.32-25.5 265.62-25L265.62-25 264.72-21.6Q263.22-22.15 261.57-22.15L261.57-22.15Q259.37-22.15 257.82-21.23 256.27-20.3 256.27-18.55L256.27-18.55 256.27 0 252.67 0Z" opacity="1" transform="matrix(1,0,0,1,0,0)" fill="#ffffff" class="undefined-text-0" data-fill-palette-color="quaternary" id="text-0"></path></svg></g></svg></g></svg></g></svg></g><g transform="matrix(1,0,0,1,91.55704360097205,0)"><svg viewBox="0 0 30.044354025213014 40.36863727369185" height="40.36863727369185" width="30.044354025213014"><g><svg xmlns="http://www.w3.org/2000/svg" xmlns:xlink="http://www.w3.org/1999/xlink" version="1.1" x="0" y="0" viewBox="16.50899887084961 5.000999927520752 66.98100280761719 89.99800109863281" enable-background="new 0 0 100 100" xml:space="preserve" height="40.36863727369185" width="30.044354025213014" class="icon-icon-0" data-fill-palette-color="quaternary" id="icon-0"><path d="M70.317 5.001H29.689c-7.278 0-13.18 7.405-13.18 16.537v56.924c0 9.135 5.902 16.537 13.18 16.537h40.628c7.292 0 13.173-7.402 13.173-16.537V21.538C83.49 12.406 77.609 5.001 70.317 5.001zM69.588 33.081H30.426v-14.04h39.162V33.081zM40.263 50.67H27.991v-13.4h12.272V50.67zM56.49 50.67H44.225v-13.4H56.49V50.67zM72.367 50.67H60.095v-13.4h12.272V50.67zM40.263 68.229H27.991V54.825h12.272V68.229zM56.49 68.229H44.225V54.825H56.49V68.229zM72.367 68.229H60.095V54.825h12.272V68.229zM40.263 85.795H27.991V72.391h12.272V85.795zM56.49 85.795H44.225V72.391H56.49V85.795zM72.367 85.795H60.095V72.391h12.272V85.795zM68.026 30.707H31.974v-9.279h36.053V30.707zM70.234 46.034h-7.973v-2.855h7.973V46.034zM70.234 63.431h-2.552v2.539h-2.868v-2.539h-2.553v-2.848h2.553v-2.538h2.868v2.538h2.552V63.431zM70.234 78.851h-7.973v-2.852h7.973V78.851zM70.234 83.215h-7.973v-2.841h7.973V83.215z" fill="#ffffff" data-fill-palette-color="quaternary"></path></svg></g></svg></g><g></g></svg></g></svg></g></svg></g></svg></g><defs></defs></svg><rect width="342.85155851775386" height="342.85155851775386" fill="none" stroke="none" visibility="hidden"></rect></g></svg></g></svg>